<?xml version="1.0" standalone="no"?>
<!DOCTYPE svg PUBLIC "-//W3C//DTD SVG 20010904//EN"
 "http://www.w3.org/TR/2001/REC-SVG-20010904/DTD/svg10.dtd">
<svg version="1.0" xmlns="http://www.w3.org/2000/svg"
 width="512.000000pt" height="512.000000pt" viewBox="0 0 512.000000 512.000000"
 preserveAspectRatio="xMidYMid meet">
<metadata>
Created by potrace 1.11, written by Peter Selinger 2001-2013
</metadata>
<g transform="translate(0.000000,512.000000) scale(0.100000,-0.100000)"
fill="#000000" stroke="none">
<path d="M340 4993 c-14 -3 -56 -20 -95 -38 -102 -47 -168 -117 -216 -225
l-24 -55 -2 -1625 c-2 -1031 1 -1640 7 -1667 34 -145 140 -261 286 -312 55
-20 82 -20 717 -21 363 0 662 -2 664 -4 2 -2 -33 -76 -78 -165 l-80 -161 -142
-1 c-78 -1 -145 -1 -149 0 -4 0 -33 -9 -63 -20 -68 -25 -137 -90 -168 -156
-30 -67 -30 -179 0 -246 29 -63 102 -131 166 -156 51 -19 81 -20 1120 -20
l1068 -1 24 24 c14 14 25 31 25 38 0 10 22 13 93 12 50 -1 97 -2 102 -3 6 0
16 -14 23 -30 7 -17 23 -32 38 -35 36 -9 251 -6 287 5 52 15 132 69 157 107
14 20 27 39 31 42 7 6 28 86 32 125 6 45 -17 130 -46 174 -28 42 -95 99 -142
121 -20 9 -88 16 -200 19 l-170 6 -82 163 -82 162 657 1 c361 0 664 2 673 4
119 23 247 118 298 220 53 107 51 26 48 1775 -2 1428 -4 1629 -18 1660 -60
138 -129 209 -259 265 -44 20 -86 20 -2260 21 -1218 1 -2226 -1 -2240 -3z"/>
</g>
</svg>
