<?xml version="1.0" encoding="utf-8"?>
<!-- Generator: Adobe Illustrator 18.0.0, SVG Export Plug-In . SVG Version: 6.00 Build 0)  -->
<!DOCTYPE svg PUBLIC "-//W3C//DTD SVG 1.1//EN" "http://www.w3.org/Graphics/SVG/1.1/DTD/svg11.dtd">
<svg version="1.1" id="Layer_1" xmlns="http://www.w3.org/2000/svg" xmlns:xlink="http://www.w3.org/1999/xlink" x="0px" y="0px"
	 viewBox="0 0 919.5 763" enable-background="new 0 0 919.5 763" xml:space="preserve">
<linearGradient id="SVGID_1_" gradientUnits="userSpaceOnUse" x1="468.1506" y1="5.6666" x2="455.1506" y2="725.6666">
	<stop  offset="0" style="stop-color:#FF2E96"/>
	<stop  offset="1" style="stop-color:#FF8E59"/>
</linearGradient>
<path fill="url(#SVGID_1_)" d="M395,39.7C501.8-10.8,602.5-10.9,686.7,27c84.4,37.6,152.4,113.2,198.5,207.1
	c44.3,94.9,44.2,196.8,8.1,279.2c-36.7,83.7-97.7,146.8-180.8,191.8c-44,22.7-90.3,38.2-149.1,47.7c-58.1,9.4-128.7,12.8-203.5,7.9
	C211.4,751.4,44.9,707.7,9.9,609C-10,560,2.5,503.8,27.2,447.2c25.1-56.6,62.5-113.6,101.7-166.1c39.6-52.6,81.2-100.7,123.9-141.5
	C296,98.7,340.3,65.1,395,39.7L395,39.7L395,39.7z"/>
</svg>
